<?xml version="1.0" encoding="UTF-8" standalone="no"?>
<svg
   xmlns:dc="http://purl.org/dc/elements/1.1/"
   xmlns:cc="http://creativecommons.org/ns#"
   xmlns:rdf="http://www.w3.org/1999/02/22-rdf-syntax-ns#"
   xmlns:svg="http://www.w3.org/2000/svg"
   xmlns="http://www.w3.org/2000/svg"
   viewBox="0 0 983.00003 306"
   height="306"
   width="983"
   xml:space="preserve"
   id="svg64"
   version="1.1"><metadata
     id="metadata70"><rdf:RDF><cc:Work
         rdf:about=""><dc:format>image/svg+xml</dc:format><dc:type
           rdf:resource="http://purl.org/dc/dcmitype/StillImage" /><dc:title></dc:title></cc:Work></rdf:RDF></metadata><defs
     id="defs68"><clipPath
       id="clipPath80"
       clipPathUnits="userSpaceOnUse"><path
         id="path78"
         d="M 0,768 H 1366 V 0 H 0 Z" /></clipPath></defs><g
     transform="matrix(1.3333333,0,0,-1.3333333,0,306)"
     id="g72"><g
       transform="translate(-408.68842,-266.5502)"
       id="g74"><g
         clip-path="url(#clipPath80)"
         id="g76"><g
           transform="translate(462.7676,416.5747)"
           id="g82"><path
             id="path84"
             style="fill:#41a7ac;fill-opacity:1;fill-rule:nonzero;stroke:none"
             d="m 0,0 13.749,-6.416 c 3.038,5.211 6.993,9.845 11.644,13.664 l -8.47,12.56 -10.405,15.361 -12.73,18.858 -6.162,9.115 -3.734,5.516 C -31.69,57.235 -44.522,42.281 -53.433,24.968 l 6.043,-2.834 9.963,-4.651 20.623,-9.641 z" /></g><g
           transform="translate(503.2832,336.3916)"
           id="g86"><path
             id="path88"
             style="fill:#a9c561;fill-opacity:1;fill-rule:nonzero;stroke:none"
             d="M 0,0 -6.399,-13.715 C 0.679,-16.431 8.3,-17.958 16.312,-18.06 L 15.446,-2.937 C 10.032,-2.767 4.855,-1.748 0,0" /></g><g
           transform="translate(512.0078,449.9448)"
           id="g90"><path
             id="path92"
             style="fill:#67b8bc;fill-opacity:1;fill-rule:nonzero;stroke:none"
             d="m 0,0 -1.052,18.518 -1.324,22.728 c -16.481,-1.663 -31.843,-7.044 -45.269,-15.31 l 12.73,-18.858 10.405,-15.361 8.47,-12.561 c 5.16,2.852 10.863,4.821 16.923,5.72 z" /></g><g
           transform="translate(563.9302,311.7627)"
           id="g94"><path
             id="path96"
             style="fill:#93b63a;fill-opacity:1;fill-rule:nonzero;stroke:none"
             d="m 0,0 -10.405,15.378 -8.487,12.544 c -5.16,-2.835 -10.863,-4.804 -16.905,-5.703 l 0.882,-15.124 1.053,-18.535 1.323,-22.71 0.629,-10.983 c 18.518,1.782 35.78,7.825 50.802,17.16 l -6.162,9.132 z" /></g><g
           transform="translate(625.646,330.0771)"
           id="g98"><path
             id="path100"
             style="fill:#f5c467;fill-opacity:1;fill-rule:nonzero;stroke:none"
             d="m 0,0 -9.98,4.651 -20.606,9.641 -16.804,7.842 -13.749,6.432 c -3.038,-5.227 -7.01,-9.861 -11.661,-13.68 l 8.487,-12.543 10.405,-15.378 12.73,-18.841 6.161,-9.115 3.735,-5.533 c 15.581,11.422 28.413,26.377 37.324,43.69 z" /></g><g
           transform="translate(582.2446,360.749)"
           id="g102"><path
             id="path104"
             style="fill:#f0b034;fill-opacity:1;fill-rule:nonzero;stroke:none"
             d="m 0,0 16.821,-7.859 20.606,-9.624 c 5.261,12.662 8.164,26.563 8.164,41.127 0,19.553 -5.228,37.902 -14.377,53.704 L 12.034,65.11 -3.599,55.147 -16.396,46.982 c 3.615,-6.993 5.652,-14.919 5.652,-23.338 0,-6.042 -1.053,-11.848 -2.987,-17.228 z" /></g><g
           transform="translate(560.7729,415.6753)"
           id="g106"><path
             id="path108"
             style="fill:#ed9d00;fill-opacity:1;fill-rule:nonzero;stroke:none"
             d="m 0,0 12.781,8.164 15.633,9.981 19.18,12.238 9.284,5.907 5.619,3.598 C 50.853,56.692 35.187,70.491 16.889,79.895 L 14.071,73.869 9.403,63.889 -0.237,43.266 -8.079,26.462 -14.496,12.73 C -8.877,9.437 -3.955,5.109 0,0" /></g><g
           transform="translate(544.1558,446.126)"
           id="g110"><path
             id="path112"
             style="fill:#8ec9cd;fill-opacity:1;fill-rule:nonzero;stroke:none"
             d="m 0,0 7.859,16.821 c -9.743,3.904 -20.368,6.059 -31.503,6.059 h -0.153 l 1.052,-18.535 h 0.017 l 0.866,-15.123 c 5.415,-0.17 10.591,-1.189 15.446,-2.954 z" /></g><g
           transform="translate(480.2505,353.1104)"
           id="g114"><path
             id="path116"
             style="fill:#bed28a;fill-opacity:1;fill-rule:nonzero;stroke:none"
             d="m 0,0 -12.764,-8.147 -15.667,-9.981 -19.163,-12.237 c 9.828,-14.004 22.931,-25.546 38.191,-33.506 l 9.64,20.605 7.859,16.822 6.416,13.731 C 8.894,-9.438 3.989,-5.126 0,0" /></g><g
           transform="translate(458.7788,408.0371)"
           id="g118"><path
             id="path120"
             style="fill:#3c8c9a;fill-opacity:1;fill-rule:nonzero;stroke:none"
             d="m 0,0 -16.821,7.859 c -3.904,-9.743 -6.059,-20.369 -6.059,-31.503 0,-15.056 3.937,-29.211 10.846,-41.466 l 15.649,9.98 12.781,8.148 c -3.615,6.992 -5.652,14.919 -5.652,23.338 0,6.042 1.052,11.847 2.987,17.228 z" /></g><g
           transform="translate(670.5063,404.7554)"
           id="g122"><path
             id="path124"
             style="fill:#333333;fill-opacity:1;fill-rule:nonzero;stroke:none"
             d="m 0,0 v 17.331 h 14.292 c 0.109,23.379 10.541,35.07 31.293,35.07 2.682,0 5.421,-0.278 8.213,-0.833 V 35.482 c -2.026,0.218 -3.531,0.329 -4.517,0.329 -5.256,0 -9.033,-1.26 -11.335,-3.778 -2.299,-2.52 -3.448,-7.421 -3.448,-14.702 h 19.3 V 0 h -19.3 V -66.612 H 14.292 V 0 Z" /></g><g
           transform="translate(725.2578,422.0859)"
           id="g126"><path
             id="path128"
             style="fill:#333333;fill-opacity:1;fill-rule:nonzero;stroke:none"
             d="M 0,0 H 21.437 L 40.245,-58.42 58.727,0 h 20.204 l -30.8,-85.996 c -4.49,-12.21 -9.364,-20.437 -14.62,-24.682 -5.256,-4.242 -10.706,-6.365 -16.344,-6.365 -4.164,0 -8.407,0.778 -12.732,2.334 v 17.044 c 3.23,-1.365 6.406,-2.048 9.528,-2.048 5.804,0 11.196,6.775 16.181,20.32 z" /></g><path
           id="path130"
           style="fill:#333333;fill-opacity:1;fill-rule:nonzero;stroke:none"
           d="m 815.572,454.036 h 20.205 V 338.144 h -20.205 z" /><g
           transform="translate(871.2275,386.4385)"
           id="g132"><path
             id="path134"
             style="fill:#333333;fill-opacity:1;fill-rule:nonzero;stroke:none"
             d="m 0,0 h 33.84 c -0.549,5.759 -2.261,10.62 -5.134,14.586 -2.875,3.965 -6.832,5.949 -11.87,5.949 C 11.799,20.535 7.87,18.918 5.05,15.686 2.23,12.454 0.546,7.225 0,0 m -20.205,-7.227 c 0,13.47 2.997,24.23 8.993,32.279 5.995,8.049 15.509,12.074 28.542,12.074 12.319,0 21.642,-3.916 27.967,-11.746 6.324,-7.83 9.485,-17.467 9.485,-28.911 0,-4.71 -0.109,-8.188 -0.33,-10.432 H 0 c 0.546,-7.282 2.723,-12.156 6.528,-14.619 3.807,-2.465 8.748,-3.697 14.826,-3.697 9.856,0 19.383,2.162 28.583,6.489 v -16.263 c -9.309,-5.039 -19.85,-7.556 -31.623,-7.556 -3.723,0 -7.226,0.301 -10.511,0.904 -3.286,0.601 -6.691,1.86 -10.216,3.777 -3.523,1.916 -6.555,4.354 -9.094,7.311 -2.54,2.956 -4.623,7.049 -6.255,12.278 -1.629,5.23 -2.443,11.266 -2.443,18.112" /></g><g
           transform="translate(953.084,368.1221)"
           id="g136"><path
             id="path138"
             style="fill:#333333;fill-opacity:1;fill-rule:nonzero;stroke:none"
             d="m 0,0 c 0,-8.98 5.269,-13.47 15.809,-13.47 h 0.164 c 10.048,0 15.073,4.242 15.073,12.731 V 9.856 c -4.698,0.658 -8.71,1.013 -12.043,1.069 C 6.388,10.925 0.053,7.282 0,0 m -20.206,-2.547 c 0,1.697 0.164,3.437 0.496,5.218 0.328,1.778 1.196,4.01 2.601,6.693 1.403,2.682 3.319,5.037 5.741,7.063 2.424,2.026 6.003,3.765 10.738,5.217 4.736,1.45 10.324,2.176 16.768,2.176 4.586,0 9.501,-0.383 14.743,-1.15 0,10.678 -5.925,16.017 -17.776,16.017 -9.459,0 -17.68,-1.425 -24.664,-4.271 v 16.591 c 7.751,2.847 16.356,4.271 25.813,4.271 11.975,0 21.136,-3.053 27.48,-9.158 6.345,-6.107 9.517,-14.936 9.517,-26.489 v -22.67 c 0,-7.721 -2.886,-14.36 -8.656,-19.917 -5.771,-5.559 -14.644,-8.337 -26.622,-8.337 -12.391,0 -21.519,2.793 -27.384,8.378 -5.864,5.585 -8.795,12.374 -8.795,20.368" /></g><g
           transform="translate(1017.7715,338.1436)"
           id="g140"><path
             id="path142"
             style="fill:#333333;fill-opacity:1;fill-rule:nonzero;stroke:none"
             d="m 0,0 v 76.469 c 1.368,0.651 3.257,1.424 5.667,2.32 2.409,0.894 7.255,2.168 14.538,3.823 7.282,1.654 14.509,2.535 21.684,2.644 V 67.926 C 33.456,67.816 26.228,66.882 20.205,65.127 V 0 Z" /></g><g
           transform="translate(1070.0576,338.1436)"
           id="g144"><path
             id="path146"
             style="fill:#333333;fill-opacity:1;fill-rule:nonzero;stroke:none"
             d="m 0,0 v 76.057 c 12.321,6.132 25.161,9.199 38.522,9.199 11.714,0 20.871,-3.052 27.471,-9.158 6.6,-6.106 9.902,-14.66 9.902,-25.666 V 0 H 55.688 v 52.157 c 0,2.244 -0.206,4.119 -0.616,5.626 -0.41,1.505 -1.231,3.079 -2.465,4.722 -1.231,1.642 -3.243,2.875 -6.036,3.697 -2.793,0.82 -6.379,1.231 -10.758,1.231 -4.93,0 -10.132,-0.492 -15.607,-1.478 L 20.206,0 Z" /></g></g></g></g></svg>